<?xml version="1.0" standalone="no"?>
<!DOCTYPE svg PUBLIC "-//W3C//DTD SVG 20010904//EN"
 "http://www.w3.org/TR/2001/REC-SVG-20010904/DTD/svg10.dtd">
<svg version="1.0" xmlns="http://www.w3.org/2000/svg"
 width="111.000000pt" height="68.000000pt" viewBox="0 0 111.000000 68.000000"
 preserveAspectRatio="xMidYMid meet">
<metadata>
Created by potrace 1.16, written by Peter Selinger 2001-2019
</metadata>
<g transform="translate(0.000000,68.000000) scale(0.100000,-0.100000)"
fill="#000000" stroke="none">
<path d="M2 556 c3 -134 10 -155 70 -199 69 -52 184 -20 226 63 19 38 22 60
22 152 l0 108 -40 0 -40 0 0 -106 c0 -103 -1 -106 -29 -135 -32 -31 -50 -35
-84 -17 -41 21 -46 39 -47 151 l0 107 -41 0 -41 0 4 -124z"/>
<path d="M450 658 c-55 -38 -80 -82 -80 -146 0 -123 101 -204 218 -173 40 11
102 54 102 71 0 5 -14 18 -31 30 l-30 22 -22 -20 c-32 -30 -70 -36 -106 -18
-58 31 -70 104 -25 150 30 29 53 34 104 21 21 -5 28 0 44 25 25 43 12 53 -72
58 -58 3 -72 0 -102 -20z"/>
<path d="M870 608 c-24 -40 -67 -114 -96 -165 -30 -51 -54 -94 -54 -97 0 -3
20 -6 45 -6 l44 0 45 78 c25 42 49 83 53 91 7 10 23 -10 60 -75 l50 -89 47 -3
c25 -2 46 0 46 3 0 8 -179 317 -190 328 -4 5 -27 -24 -50 -65z"/>
<path d="M540 510 l0 -40 80 0 80 0 0 40 0 40 -80 0 -80 0 0 -40z"/>
<path d="M868 321 c-21 -38 -38 -72 -38 -75 0 -3 38 -6 85 -6 47 0 85 3 85 6
0 15 -76 144 -85 144 -5 0 -27 -31 -47 -69z"/>
<path d="M190 225 c0 -42 3 -55 15 -55 12 0 15 13 15 55 0 42 -3 55 -15 55
-12 0 -15 -13 -15 -55z"/>
<path d="M540 225 c0 -42 3 -55 15 -55 12 0 15 13 15 55 0 42 -3 55 -15 55
-12 0 -15 -13 -15 -55z"/>
<path d="M662 250 c-12 -16 -22 -34 -22 -40 0 -5 -4 -10 -10 -10 -14 0 -12 28
2 32 9 3 8 10 -5 23 -27 27 -48 2 -38 -45 7 -37 37 -53 52 -28 5 8 9 8 9 2 0
-16 31 -23 58 -13 25 10 30 49 9 71 -8 7 -12 19 -9 26 8 24 -25 12 -46 -18z"/>
<path d="M0 225 c0 -38 4 -47 23 -54 41 -15 62 1 65 53 2 36 0 46 -12 46 -12
0 -16 -10 -16 -35 0 -24 -5 -35 -15 -35 -10 0 -15 11 -15 35 0 24 -5 35 -15
35 -11 0 -15 -12 -15 -45z"/>
<path d="M123 253 c-19 -4 -23 -11 -23 -44 0 -28 4 -39 15 -39 9 0 15 9 15 24
0 14 5 28 10 31 6 4 10 -7 10 -24 0 -21 5 -31 15 -31 22 0 21 76 -1 84 -9 3
-16 5 -17 5 -1 -1 -12 -4 -24 -6z"/>
<path d="M230 240 c0 -21 31 -70 44 -70 7 0 17 10 23 23 l10 22 7 -21 c8 -26
33 -34 64 -23 22 8 28 32 16 63 -7 19 -54 21 -73 4 -11 -10 -13 -10 -7 0 5 8
0 12 -13 12 -13 0 -21 -7 -21 -17 -1 -17 -1 -17 -11 0 -11 18 -39 24 -39 7z"/>
<path d="M410 209 c0 -28 4 -39 15 -39 9 0 15 10 15 26 0 16 5 24 13 21 6 -2
11 -11 9 -20 -3 -19 30 -39 52 -31 11 4 16 19 16 45 l0 38 -60 0 -60 -1 0 -39z"/>
<path d="M22 130 c-31 -13 -32 -84 -1 -100 28 -16 68 -4 79 23 l9 22 0 -22 c1
-32 31 -30 31 2 0 16 6 25 15 25 8 0 15 -9 15 -20 0 -27 34 -44 61 -30 15 9
19 19 17 43 l-3 32 -65 2 c-42 2 -67 -2 -72 -10 -5 -8 -8 -6 -8 6 0 13 -40 41
-53 36 -1 0 -12 -4 -25 -9z m36 -37 c-9 -2 -19 -12 -21 -21 -3 -12 -5 -10 -6
6 -1 17 4 22 22 21 15 -1 17 -3 5 -6z"/>
<path d="M450 86 c0 -47 3 -54 23 -60 31 -8 34 -8 51 10 9 8 16 11 16 5 0 -6
7 -11 15 -11 12 0 15 13 15 55 0 42 -3 55 -15 55 -10 0 -15 -10 -15 -27 0 -21
-3 -24 -12 -15 -7 7 -20 12 -30 12 -10 0 -18 7 -18 15 0 8 -7 15 -15 15 -11 0
-15 -13 -15 -54z m50 -16 c0 -5 -4 -10 -10 -10 -5 0 -10 5 -10 10 0 6 5 10 10
10 6 0 10 -4 10 -10z"/>
<path d="M809 93 l0 -48 -19 43 c-25 55 -46 54 -70 -4 -11 -25 -20 -47 -20
-48 0 -1 32 -3 70 -4 l70 -1 0 55 c0 41 -4 54 -15 54 -11 0 -15 -12 -16 -47z"/>
<path d="M260 71 c0 -30 4 -41 15 -41 9 0 15 9 15 25 0 14 5 25 10 25 6 0 10
-11 10 -25 0 -16 6 -25 16 -25 12 0 14 9 12 38 -3 35 -5 37 -40 40 l-38 3 0
-40z"/>
<path d="M357 103 c-4 -3 -7 -19 -7 -34 0 -53 73 -64 86 -13 4 14 1 31 -6 39
-13 15 -61 21 -73 8z m51 -34 c-2 -6 -8 -10 -13 -10 -5 0 -11 4 -13 10 -2 6 4
11 13 11 9 0 15 -5 13 -11z"/>
<path d="M590 95 c-17 -20 -5 -62 20 -70 42 -13 71 24 54 69 -8 20 -57 21 -74
1z"/>
<path d="M860 55 c0 -42 3 -55 15 -55 8 0 15 4 15 9 0 5 11 12 25 15 14 4 25
11 25 16 0 6 11 3 25 -6 25 -16 65 -11 65 8 0 6 9 3 19 -6 13 -12 27 -15 40
-11 17 5 21 13 18 43 -2 31 -7 38 -27 40 -14 2 -29 -3 -36 -12 -10 -15 -12
-15 -18 -1 -7 18 -62 20 -69 3 -4 -10 -7 -10 -18 0 -7 6 -28 12 -46 12 l-33 0
0 -55z m50 15 c0 -5 -4 -10 -10 -10 -5 0 -10 5 -10 10 0 6 5 10 10 10 6 0 10
-4 10 -10z"/>
</g>
</svg>
